<svg width="32" height="32" fill="none" xmlns="http://www.w3.org/2000/svg"><rect width="32" height="32" rx="7" fill="#FEF0F0"/><path d="M23.613 11.869a4.703 4.703 0 0 0-1.054-1.498 4.908 4.908 0 0 0-1.556-1.004A5.016 5.016 0 0 0 19.107 9 5.035 5.035 0 0 0 16 10.07 5.035 5.035 0 0 0 12.895 9c-.658 0-1.295.123-1.897.367a4.897 4.897 0 0 0-1.555 1.004 4.673 4.673 0 0 0-1.054 1.498A4.546 4.546 0 0 0 8 13.712c0 .603.126 1.23.376 1.869.21.534.51 1.087.893 1.646.607.885 1.442 1.807 2.48 2.742a27.65 27.65 0 0 0 3.493 2.665l.438.275a.607.607 0 0 0 .64 0l.438-.275a28.018 28.018 0 0 0 3.493-2.665c1.038-.935 1.873-1.857 2.48-2.742a8.21 8.21 0 0 0 .893-1.646c.25-.639.376-1.266.376-1.869a4.515 4.515 0 0 0-.387-1.843Z" fill="url(#a)"/><defs><linearGradient id="a" x1="16" y1="9" x2="16" y2="23" gradientUnits="userSpaceOnUse"><stop stop-color="#FFB0B0"/><stop offset="1" stop-color="#FF4343"/></linearGradient></defs></svg>