<svg aria-hidden="true" style="position:absolute;width:0;height:0;overflow:hidden" xmlns="http://www.w3.org/2000/svg">
    <defs>
        <symbol id="search" viewBox="0 0 32 32">
            <path d="M31.12 31.12a3.004 3.004 0 0 1-4.25 0l-5.304-5.304c-2.18 1.399-4.758 2.232-7.541 2.232C6.28 28.048.001 21.77.001 14.024S6.28 0 14.025 0c7.746 0 14.024 6.278 14.024 14.024 0 2.782-.834 5.361-2.232 7.542l5.304 5.304a3.003 3.003 0 0 1 0 4.249zM14.024 4.007c-5.532 0-10.017 4.484-10.017 10.017s4.485 10.017 10.017 10.017c5.533 0 10.017-4.484 10.017-10.017S19.557 4.007 14.024 4.007z"/>
        </symbol>
        <symbol id="arrow-right" viewBox="0 0 37 32">
            <path fill="none" stroke="#fff" style="stroke:var(--color1, #fff)" stroke-linejoin="round"
                  stroke-linecap="round" stroke-width="4.571"
                  d="M2.286 16h31.346M19.918 2.286 33.632 16 19.918 29.714"/>
        </symbol>
        <symbol id="plus" viewBox="0 0 32 32">
            <path fill="#d3d3d3" style="fill:var(--color2, #d3d3d3)"
                  d="M28.44 13.683h-9.235V4.448c0-3.56-5.52-3.56-5.52 0v9.235h-9.24c-3.56 0-3.56 5.523 0 5.523h9.235v9.235c0 3.563 5.523 3.563 5.523 0v-9.235h9.235c3.563 0 3.563-5.52 0-5.52z"/>
        </symbol>
        <symbol id="arrow-carousel" viewBox="0 0 19 32">
            <path fill="none" stroke="#c8c8c8" style="stroke:var(--color3, #c8c8c8)" stroke-linejoin="round"
                  stroke-linecap="round" stroke-width="4" d="M2.667 2.667 16 16 2.667 29.333"/>
        </symbol>
        <symbol id="account" viewBox="0 0 32 32">
            <path d="M0 16C0 7.326 7.326 0 16 0s16 7.326 16 16c0 5.104-2.547 9.725-6.4 12.678v.122h-.163C22.768 30.792 19.499 32 16 32s-6.768-1.208-9.437-3.2H6.4v-.122C2.547 25.724 0 21.102 0 16zm11.397 8.378a4.805 4.805 0 0 0-1.672 2.673l-.006.032a12.374 12.374 0 0 0 6.279 1.717H16a12.442 12.442 0 0 0 6.339-1.749l-.058.032c-.492-2.167-2.4-3.762-4.681-3.766h-3.201a4.786 4.786 0 0 0-3.012 1.068l.009-.007zm10.632-2.919a8.056 8.056 0 0 1 2.927 3.514l.02.052c2.347-2.334 3.824-5.544 3.824-9.026 0-6.939-5.861-12.8-12.8-12.8S3.2 9.06 3.2 15.999c0 3.482 1.477 6.691 3.824 9.026 1.243-2.905 4.076-4.904 7.375-4.909H17.6a7.963 7.963 0 0 1 4.457 1.361l-.029-.018zM9.6 12.8c0-3.648 2.752-6.4 6.4-6.4s6.4 2.752 6.4 6.4c0 3.648-2.752 6.4-6.4 6.4s-6.4-2.752-6.4-6.4zm3.2 0c0 1.885 1.315 3.2 3.2 3.2s3.2-1.315 3.2-3.2-1.315-3.2-3.2-3.2-3.2 1.315-3.2 3.2z"/>
        </symbol>
        <symbol id="favorite" viewBox="0 0 37 32">
            <path d="M25.432 0c2.745 0 5.049.926 6.914 2.776 1.866 1.851 2.799 4.109 2.799 6.776 0 1.305-.275 2.626-.824 3.958a22.483 22.483 0 0 1-1.865 3.646l.055-.093c-.659 1.032-1.768 2.366-3.335 3.998-1.563 1.634-2.88 2.952-3.949 3.958-1.069 1.009-2.784 2.545-5.144 4.615l-2.552 2.285-2.552-2.206a3436.46 3436.46 0 0 0-5.103-4.692 90.998 90.998 0 0 1-3.954-3.918l-.037-.04c-1.563-1.634-2.675-2.968-3.335-4.002A19.926 19.926 0 0 1 .83 13.65l-.048-.139a10.617 10.617 0 0 1-.781-3.957V9.55c0-2.666.933-4.925 2.799-6.776C4.664.925 6.943 0 9.631 0c3.183 0 5.816 1.224 7.899 3.673C19.618 1.224 22.253 0 25.432 0zm-7.736 27.102a280.813 280.813 0 0 0 6.041-5.494l-.158.146a79.102 79.102 0 0 0 4.012-4.134l.062-.07c1.482-1.634 2.509-3.062 3.085-4.286a8.528 8.528 0 0 0 .864-3.711V9.55c0-1.741-.589-3.183-1.768-4.327s-2.648-1.715-4.404-1.715c-1.317 0-2.565.381-3.744 1.144-1.179.761-2.016 1.741-2.509 2.939h-3.293c-.44-1.197-1.248-2.178-2.427-2.939a6.856 6.856 0 0 0-3.811-1.144H9.63h.001c-1.757 0-3.21.573-4.362 1.715C4.115 6.367 3.538 7.808 3.538 9.55c0 1.251.275 2.489.824 3.714s1.578 2.654 3.087 4.286a89.704 89.704 0 0 0 4.115 4.204 396.513 396.513 0 0 0 5.45 5.032l.352.315.165.163.165-.163z"/>
        </symbol>
        <symbol id="cart" viewBox="0 0 32 32">
            <path fill="none" stroke-linejoin="round"
                  stroke-linecap="round" stroke-width="3.2"
                  d="M12.072 29.091a1.31 1.31 0 1 0 0-2.62v0a1.31 1.31 0 1 0 0 2.62v0zm14.402 0a1.31 1.31 0 1 0 0-2.62v0a1.31 1.31 0 1 0 0 2.62v0zM1.6 1.6h5.237l3.507 17.53a2.622 2.622 0 0 0 2.567 2.108l.054-.001h-.003 12.775a2.62 2.62 0 0 0 2.565-2.091l.003-.017 2.094-10.986H8.143"/>
        </symbol>
        <symbol id="checked" viewBox="0 0 35 32">
            <path fill="#fff" style="fill:var(--color1, #fff)"
                  d="M28.093 1.804a2.857 2.857 0 0 1 4.078 4.001l.001-.001-15.203 19.011a2.85 2.85 0 0 1-2.095.914 2.846 2.846 0 0 1-2.019-.836l-10.08-10.08a2.858 2.858 0 1 1 4.044-4.04l7.971 7.977L28.018 1.892a.816.816 0 0 1 .076-.087z"/>
        </symbol>
        <symbol id="favoriteFull" viewBox="0 0 34 32">
            <path fill="#ff8585" style="fill:var(--color1, #ff8585)"
                  d="M33.337 7.367a9.873 9.873 0 0 0-2.167-3.129l-.002-.002a10.141 10.141 0 0 0-7.078-2.864h-.023.001-.004c-2.424 0-4.651.843-6.405 2.251l.02-.016a10.17 10.17 0 0 0-6.385-2.235h-.025a10.144 10.144 0 0 0-7.083 2.869l.003-.003A9.72 9.72 0 0 0 2.02 7.369a9.469 9.469 0 0 0-.8 3.843v.007c0 1.259.261 2.571.775 3.906.43 1.115 1.047 2.272 1.835 3.44 1.25 1.849 2.969 3.776 5.102 5.73a57.022 57.022 0 0 0 6.975 5.439l.212.132.903.571c.4.256.914.256 1.314 0l.903-.571a58.061 58.061 0 0 0 7.232-5.611l-.045.041c2.133-1.954 3.851-3.881 5.099-5.73a16.929 16.929 0 0 0 1.796-3.324l.041-.116c.474-1.155.757-2.496.773-3.9v-.04a9.527 9.527 0 0 0-.82-3.879l.024.061z"/>
        </symbol>
    </defs>
</svg>